# xmcd CD database file
#
# Track frame offsets:
#	150
#	11583
#	24002
#	35069
#	46341
#	57829
#	70013
#	83520
#	93637
#	105115
#	113513
#	127687
#	142844
#	159002
#	173411
#
# Disc length: 2540 seconds
#
# Revision: 0
# Processed by: cddbd v1.5.2PL0 Copyright (c) Steve Scherf et al.
# Submitted via: CDex 1.70beta2
#
DISCID=9809ea0f
DTITLE=Various Artist - Lifetime of Country Romance: Always Wanting You [CD2]
DYEAR=2006
DGENRE=Country
TTITLE0=Ferlin Husky and Jean Shepard - A Dear John Letter
TTITLE1=Jimmy Wakely - I Love You So Much It Hurts
TTITLE2=Hank Thompson - Waiting in the Lobby of Your Heart
TTITLE3=Faron Young - All Right
TTITLE4=Ricky Nelson - Poor Little Fool
TTITLE5=George Jones and the Jones Boys - A Girl I Used to Know
TTITLE6=The Louvin Brothers - I Love You Best of All
TTITLE7=Sonny James - You're the Only World I Know
TTITLE8=Wynn Stewart - It's Such a Pretty World
TTITLE9=Susan Raye - (I've Got a) Happy Heart
TTITLE10=Merle Haggard and the Strangers - Always Wanting You
TTITLE11=Gene Watson - Love in the Hot Afternoon
TTITLE12=Billie Jo Spears - Blanket on the Ground
TTITLE13=Kenny Rogers and Dottie West - Daytime Friends
TTITLE14=Crystal Gayle - You Never Miss a Real Good Thing ('Til He Says Goodbye)
EXTD=YEAR: 2006
EXTT0=
EXTT1=
EXTT2=
EXTT3=
EXTT4=
EXTT5=
EXTT6=
EXTT7=
EXTT8=
EXTT9=
EXTT10=
EXTT11=
EXTT12=
EXTT13=
EXTT14=
PLAYORDER=
